<?xml version="1.0" encoding="UTF-8" standalone="no"?><svg xmlns="http://www.w3.org/2000/svg" xmlns:xlink= "http://www.w3.org/1999/xlink" width="600" height="390" aria-label="A chart." style="overflow: hidden;"><defs id="_ABSTRACT_RENDERER_ID_376"><clipPath id="_ABSTRACT_RENDERER_ID_377"><rect x="115" y="75" width="371" height="241"></rect></clipPath></defs><rect x="0" y="0" width="600" height="390" stroke="none" stroke-width="0" fill="#ffffff"></rect><g><text text-anchor="start" x="115" y="52.05" font-family="Arial" font-size="13" font-weight="bold" stroke="none" stroke-width="0" fill="#000000">FPS vs. #Blades (Higher is Better)</text><rect x="115" y="41" width="371" height="13" stroke="none" stroke-width="0" fill-opacity="0" fill="#ffffff"></rect></g><g><rect x="115" y="75" width="371" height="241" stroke="none" stroke-width="0" fill-opacity="0" fill="#ffffff"></rect><g clip-path="url(https://www.rapidtables.com/tools/line-graph.html#_ABSTRACT_RENDERER_ID_377)"><g><rect x="115" y="75" width="1" height="241" stroke="none" stroke-width="0" fill="#cccccc"></rect><rect x="189" y="75" width="1" height="241" stroke="none" stroke-width="0" fill="#cccccc"></rect><rect x="263" y="75" width="1" height="241" stroke="none" stroke-width="0" fill="#cccccc"></rect><rect x="337" y="75" width="1" height="241" stroke="none" stroke-width="0" fill="#cccccc"></rect><rect x="411" y="75" width="1" height="241" stroke="none" stroke-width="0" fill="#cccccc"></rect><rect x="485" y="75" width="1" height="241" stroke="none" stroke-width="0" fill="#cccccc"></rect><rect x="152" y="75" width="1" height="241" stroke="none" stroke-width="0" fill="#ebebeb"></rect><rect x="226" y="75" width="1" height="241" stroke="none" stroke-width="0" fill="#ebebeb"></rect><rect x="300" y="75" width="1" height="241" stroke="none" stroke-width="0" fill="#ebebeb"></rect><rect x="374" y="75" width="1" height="241" stroke="none" stroke-width="0" fill="#ebebeb"></rect><rect x="448" y="75" width="1" height="241" stroke="none" stroke-width="0" fill="#ebebeb"></rect><rect x="115" y="315" width="371" height="1" stroke="none" stroke-width="0" fill="#cccccc"></rect><rect x="115" y="257" width="371" height="1" stroke="none" stroke-width="0" fill="#cccccc"></rect><rect x="115" y="233" width="371" height="1" stroke="none" stroke-width="0" fill="#cccccc"></rect><rect x="115" y="178" width="371" height="1" stroke="none" stroke-width="0" fill="#cccccc"></rect><rect x="115" y="154" width="371" height="1" stroke="none" stroke-width="0" fill="#cccccc"></rect><rect x="115" y="99" width="371" height="1" stroke="none" stroke-width="0" fill="#cccccc"></rect><rect x="115" y="75" width="371" height="1" stroke="none" stroke-width="0" fill="#cccccc"></rect><rect x="115" y="289" width="371" height="1" stroke="none" stroke-width="0" fill="#ebebeb"></rect><rect x="115" y="275" width="371" height="1" stroke="none" stroke-width="0" fill="#ebebeb"></rect><rect x="115" y="265" width="371" height="1" stroke="none" stroke-width="0" fill="#ebebeb"></rect><rect x="115" y="251" width="371" height="1" stroke="none" stroke-width="0" fill="#ebebeb"></rect><rect x="115" y="246" width="371" height="1" stroke="none" stroke-width="0" fill="#ebebeb"></rect><rect x="115" y="241" width="371" height="1" stroke="none" stroke-width="0" fill="#ebebeb"></rect><rect x="115" y="237" width="371" height="1" stroke="none" stroke-width="0" fill="#ebebeb"></rect><rect x="115" y="210" width="371" height="1" stroke="none" stroke-width="0" fill="#ebebeb"></rect><rect x="115" y="196" width="371" height="1" stroke="none" stroke-width="0" fill="#ebebeb"></rect><rect x="115" y="186" width="371" height="1" stroke="none" stroke-width="0" fill="#ebebeb"></rect><rect x="115" y="172" width="371" height="1" stroke="none" stroke-width="0" fill="#ebebeb"></rect><rect x="115" y="166" width="371" height="1" stroke="none" stroke-width="0" fill="#ebebeb"></rect><rect x="115" y="162" width="371" height="1" stroke="none" stroke-width="0" fill="#ebebeb"></rect><rect x="115" y="158" width="371" height="1" stroke="none" stroke-width="0" fill="#ebebeb"></rect><rect x="115" y="130" width="371" height="1" stroke="none" stroke-width="0" fill="#ebebeb"></rect><rect x="115" y="116" width="371" height="1" stroke="none" stroke-width="0" fill="#ebebeb"></rect><rect x="115" y="107" width="371" height="1" stroke="none" stroke-width="0" fill="#ebebeb"></rect><rect x="115" y="93" width="371" height="1" stroke="none" stroke-width="0" fill="#ebebeb"></rect><rect x="115" y="87" width="371" height="1" stroke="none" stroke-width="0" fill="#ebebeb"></rect><rect x="115" y="83" width="371" height="1" stroke="none" stroke-width="0" fill="#ebebeb"></rect><rect x="115" y="79" width="371" height="1" stroke="none" stroke-width="0" fill="#ebebeb"></rect></g><g><rect x="115" y="315" width="371" height="1" stroke="none" stroke-width="0" fill="#333333"></rect></g><g><path d="M115.5,91.69624147715433L152.5,92.18435936385418L189.5,94.47688233763972L226.5,101.14443720359947L263.5,136.86424987775177L300.5,170.35639092035782L337.5,197.97376620599792L374.5,220.85545678106882L411.5,243.30747284080695L448.5,265.3805368953811L485.5,287.53968246294716" stroke="#3366cc" stroke-width="3" fill-opacity="1" fill="none"></path></g></g><g><circle cx="115.5" cy="91.69624147715433" r="4.5" stroke="none" stroke-width="0" fill="#3366cc"></circle><circle cx="152.5" cy="92.18435936385418" r="4.5" stroke="none" stroke-width="0" fill="#3366cc"></circle><circle cx="189.5" cy="94.47688233763972" r="4.5" stroke="none" stroke-width="0" fill="#3366cc"></circle><circle cx="226.5" cy="101.14443720359947" r="4.5" stroke="none" stroke-width="0" fill="#3366cc"></circle><circle cx="263.5" cy="136.86424987775177" r="4.5" stroke="none" stroke-width="0" fill="#3366cc"></circle><circle cx="300.5" cy="170.35639092035782" r="4.5" stroke="none" stroke-width="0" fill="#3366cc"></circle><circle cx="337.5" cy="197.97376620599792" r="4.5" stroke="none" stroke-width="0" fill="#3366cc"></circle><circle cx="374.5" cy="220.85545678106882" r="4.5" stroke="none" stroke-width="0" fill="#3366cc"></circle><circle cx="411.5" cy="243.30747284080695" r="4.5" stroke="none" stroke-width="0" fill="#3366cc"></circle><circle cx="448.5" cy="265.3805368953811" r="4.5" stroke="none" stroke-width="0" fill="#3366cc"></circle><circle cx="485.5" cy="287.53968246294716" r="4.5" stroke="none" stroke-width="0" fill="#3366cc"></circle></g><g><g><text text-anchor="middle" x="115.5" y="335.05" font-family="Arial" font-size="13" stroke="none" stroke-width="0" fill="#444444">10</text></g><g><text text-anchor="middle" x="189.5" y="335.05" font-family="Arial" font-size="13" stroke="none" stroke-width="0" fill="#444444">12</text></g><g><text text-anchor="middle" x="263.5" y="335.05" font-family="Arial" font-size="13" stroke="none" stroke-width="0" fill="#444444">14</text></g><g><text text-anchor="middle" x="337.5" y="335.05" font-family="Arial" font-size="13" stroke="none" stroke-width="0" fill="#444444">16</text></g><g><text text-anchor="middle" x="411.5" y="335.05" font-family="Arial" font-size="13" stroke="none" stroke-width="0" fill="#444444">18</text></g><g><text text-anchor="middle" x="485.5" y="335.05" font-family="Arial" font-size="13" stroke="none" stroke-width="0" fill="#444444">20</text></g><g><text text-anchor="end" x="102" y="319.55" font-family="Arial" font-size="13" stroke="none" stroke-width="0" fill="#444444">0</text></g><g><text text-anchor="end" x="102" y="262.2567" font-family="Arial" font-size="13" stroke="none" stroke-width="0" fill="#444444">50</text></g><g><text text-anchor="end" x="102" y="238.4197" font-family="Arial" font-size="13" stroke="none" stroke-width="0" fill="#444444">100</text></g><g><text text-anchor="end" x="102" y="183.0719" font-family="Arial" font-size="13" stroke="none" stroke-width="0" fill="#444444">500</text></g><g><text text-anchor="end" x="102" y="159.2349" font-family="Arial" font-size="13" stroke="none" stroke-width="0" fill="#444444">1,000</text></g><g><text text-anchor="end" x="102" y="103.887" font-family="Arial" font-size="13" stroke="none" stroke-width="0" fill="#444444">5,000</text></g><g><text text-anchor="end" x="102" y="80.05" font-family="Arial" font-size="13" stroke="none" stroke-width="0" fill="#444444">10,000</text></g></g></g><g><g><text text-anchor="middle" x="300.5" y="368.05" font-family="Arial" font-size="13" font-style="italic" stroke="none" stroke-width="0" fill="#222222">log(#Blades)</text><rect x="115" y="357" width="371" height="13" stroke="none" stroke-width="0" fill-opacity="0" fill="#ffffff"></rect></g><g><text text-anchor="middle" x="35.55" y="195.5" font-family="Arial" font-size="13" font-style="italic" transform="rotate(-90 35.55 195.5)" stroke="none" stroke-width="0" fill="#222222">FPS</text><path d="M24.499999999999996,316L24.50000000000001,75L37.50000000000001,75L37.49999999999999,316Z" stroke="none" stroke-width="0" fill-opacity="0" fill="#ffffff"></path></g></g><g></g></svg>